<?xml version="1.0" encoding="UTF-8"?><svg id="Layer_1" xmlns="http://www.w3.org/2000/svg" viewBox="0 0 704.56 124.53"><defs><style>.cls-1{fill:#e9e9e9;}.cls-2{fill:#456bb3;}</style></defs><path class="cls-1" d="M565.17,71.87l-60.57.02c-8.78,0-16.05-6.89-15.99-15.69l.28-41.53c.05-7.96,7.57-14.58,15.43-14.58l59.05-.05c9.1,0,16.21,7.17,16.21,16.22v39.99c-.01,8.25-6.24,14.01-14.4,15.62ZM558.45,56.45c2.99,0,5.29-2.38,5.69-5.26l-.1-30.85c0-2.61-3.01-4.99-5.65-4.99l-48.94.06c-2.73,0-5.44,3.18-5.43,5.69l.09,30.34c0,2.51,2.65,4.84,5.19,5.11l49.16-.1Z"/><path class="cls-1" d="M135.96,49.54l-.03,22.32h-16.17s.02-37.09.02-37.09l64.22.05c3.22,0,5.92-2.52,5.92-5.57v-8.88c0-1.86-2.32-4.97-4.67-4.98l-65.45-.06-.05-15.31,68.62.06c8.98,0,16.23,7.34,16.35,16.11l.22,16.13c.14,10.45-7.85,17.76-18.83,16.85l19.93,22.55-19.99.16-19.44-22.23-30.64-.1Z"/><polygon class="cls-1" points="704.56 71.67 687.76 71.86 633.39 21.08 633.11 71.83 617.16 71.92 617.19 .1 634.34 .09 688.37 50 688.55 .12 704.51 .1 704.56 71.67"/><path class="cls-1" d="M380.06,50.95c0,3.14,2.37,5.52,5.28,5.52h67.45s.15,15.43.15,15.43h-72.32c-9.27,0-16.2-7.62-16.15-16.58l.26-40.8c.05-8.22,7.61-14.47,15.6-14.47l72.68-.05-.07,15.31-67.59.06c-2.42,0-5.2,2.37-5.21,4.81l-.09,30.77Z"/><polygon class="cls-1" points="317.85 71.93 285.79 19.84 253.63 71.81 234.71 71.7 278.71 .3 292.36 .22 336.74 71.71 317.85 71.93"/><polygon class="cls-1" points="53.52 71.79 37.36 71.88 37.34 15.35 1.73 15.39 1.61 .06 89.92 .04 90.07 15.35 53.55 15.4 53.52 71.79"/><path class="cls-2" d="M159.88,89.99h13.68l17.12,25.87-.21-25.87h8.13v34.04h-13.81l-16.86-25.62.21,25.62h-8.26v-34.04Z"/><path class="cls-2" d="M280.29,90.31v7.56h-23.93v5.76h22.55v6.61h-22.55v5.91h24.24v7.56h-33.12v-33.4h32.81Z"/><path class="cls-2" d="M344.1,107.04l-13.87-16.88h11.8l9.42,12.08,9.6-12.08h11.5l-13.83,16.73,14.75,16.98h-12.15l-9.86-12.13-9.91,12.13h-12.07l14.62-16.83Z"/><path class="cls-2" d="M431.94,89.5v17.18c0,3.8,0,3.91.14,4.84.47,3.9,2.03,4.68,9.2,4.68s9.16-.21,10.34-1.2c.94-.78,1.41-2.29,1.46-4.94q.05-.78.05-4.63v-15.93h9.58v18.22c.09,8.59-.57,11.14-3.35,13.9-2.27,1.93-5.1,2.76-9.2,2.81-1.46.05-2.31.05-4.2.05l-3.59.05c-8.87-.05-10.62-.15-12.93-.83-5.71-1.92-7.22-5.21-7.08-15.51v-18.69h9.58Z"/><path class="cls-2" d="M514.51,113.13c.1,2.34.35,2.89,1.56,3.35.75.31,3.62.51,6.85.51,11.83,0,13.24-.36,13.24-3.15,0-1.37-.65-2.39-1.71-2.74q-1.11-.36-6.4-.41h-9.27c-6.19,0-8.76-.36-10.93-1.47-2.41-1.27-3.52-3.96-3.52-8.58,0-6.09,1.71-8.68,6.54-9.85,2.72-.71,6.65-.97,14-.97,11.78,0,14.5.3,16.92,1.88,2.32,1.57,3.07,3.65,3.07,8.73h-9.97c0-2.95-1-3.35-7.6-3.35-3.28,0-7.65.1-9.27.2-2.72.2-3.62.91-3.62,2.84,0,1.42.71,2.34,2.16,2.69.6.15.8.2,4.13.25h9.52c.91,0,5.44.15,7.15.25,6.4.3,8.91,3.15,8.91,9.95,0,6.24-1.81,8.99-6.75,10.05-2.52.56-7.5.86-14.8.86-11.63,0-14.2-.25-17.17-1.78-2.07-1.01-3.12-3.6-3.12-7.61,0-.31,0-.97.05-1.68h10.02Z"/><rect class="cls-2" x="0" y="106.22" width="133.23" height="1.59"/><rect class="cls-2" x="571.32" y="106.22" width="133.23" height="1.59"/></svg>